#N canvas 611 354 740 398 10;
#X obj 24 51 master_serial;
#X obj 24 27 r to-serial;
#X obj 470 323 s to-serial;
#X obj 470 60 vsl 15 100 0 255 0 0 empty empty Master 0 -9 0 10 -262144
-1 -1 7865 1;
#X floatatom 470 168 5 0 0 0 - - -, f 5;
#X obj 470 187 / 2;
#X obj 470 208 i;
#X floatatom 470 230 5 0 0 0 - - -, f 5;
#X obj 24 127 bng 15 250 50 0 empty empty red_BANG 17 7 0 10 -258113
-1 -1;
#X msg 470 298 128 \, \$1;
#X obj 24 323 s to-serial;
#X obj 285 127 bng 15 250 50 0 empty empty clear 17 7 0 10 -262144
-1 -1;
#X obj 285 243 s to-serial;
#X msg 24 147 140 \, 1;
#X msg 285 147 240 \, 1;
#X obj 470 253 change;
#X floatatom 35 210 5 0 0 0 - - -, f 5;
#X obj 38 168 hsl 100 15 0 1 0 0 empty empty time_(ms) -2 8 0 10 -261234
-1 -1 3100 1;
#X obj 35 273 i;
#X obj 35 188 * 4064;
#X obj 35 229 / 4064;
#X obj 35 251 * 127;
#X obj 560 323 s to-serial;
#X obj 560 60 vsl 15 100 0 255 0 0 empty empty Source 0 -9 0 10 -262144
-1 -1 9900 1;
#X floatatom 560 168 5 0 0 0 - - -, f 5;
#X obj 560 187 / 2;
#X obj 560 208 i;
#X floatatom 560 230 5 0 0 0 - - -, f 5;
#X obj 560 253 change;
#X obj 650 323 s to-serial;
#X obj 650 60 vsl 15 100 0 255 0 0 empty empty Dest 0 -9 0 10 -262144
-1 -1 0 1;
#X floatatom 650 168 5 0 0 0 - - -, f 5;
#X obj 650 187 / 2;
#X obj 650 208 i;
#X floatatom 650 230 5 0 0 0 - - -, f 5;
#X obj 650 253 change;
#X msg 560 298 129 \, \$1;
#X msg 650 298 130 \, \$1;
#X obj 391 5 loadbang;
#X msg 470 22 200;
#X msg 560 22 255;
#X msg 650 22 50;
#X obj 154 127 bng 15 250 50 0 empty empty red_BANG 17 7 0 10 -4160
-1 -1;
#X obj 154 323 s to-serial;
#X floatatom 165 210 5 0 0 0 - - -, f 5;
#X obj 168 168 hsl 100 15 0 1 0 0 empty empty time_(ms) -2 8 0 10 -203904
-1 -1 2700 1;
#X obj 165 273 i;
#X obj 165 188 * 4064;
#X obj 165 229 / 4064;
#X obj 165 251 * 127;
#X msg 35 294 141 \, \$1;
#X msg 154 147 150 \, 1;
#X msg 165 294 151 \, \$1;
#X obj 361 6 key;
#X floatatom 361 28 5 0 0 0 - - -, f 5;
#X obj 361 110 sel 49 50 51;
#X connect 1 0 0 0;
#X connect 3 0 4 0;
#X connect 4 0 5 0;
#X connect 5 0 6 0;
#X connect 6 0 7 0;
#X connect 7 0 15 0;
#X connect 8 0 13 0;
#X connect 9 0 2 0;
#X connect 11 0 14 0;
#X connect 13 0 10 0;
#X connect 14 0 12 0;
#X connect 15 0 9 0;
#X connect 16 0 20 0;
#X connect 17 0 19 0;
#X connect 18 0 50 0;
#X connect 19 0 16 0;
#X connect 20 0 21 0;
#X connect 21 0 18 0;
#X connect 23 0 24 0;
#X connect 24 0 25 0;
#X connect 25 0 26 0;
#X connect 26 0 27 0;
#X connect 27 0 28 0;
#X connect 28 0 36 0;
#X connect 30 0 31 0;
#X connect 31 0 32 0;
#X connect 32 0 33 0;
#X connect 33 0 34 0;
#X connect 34 0 35 0;
#X connect 35 0 37 0;
#X connect 36 0 22 0;
#X connect 37 0 29 0;
#X connect 38 0 41 0;
#X connect 38 0 40 0;
#X connect 38 0 39 0;
#X connect 39 0 3 0;
#X connect 40 0 23 0;
#X connect 41 0 30 0;
#X connect 42 0 51 0;
#X connect 44 0 48 0;
#X connect 45 0 47 0;
#X connect 46 0 52 0;
#X connect 47 0 44 0;
#X connect 48 0 49 0;
#X connect 49 0 46 0;
#X connect 50 0 10 0;
#X connect 51 0 43 0;
#X connect 52 0 43 0;
#X connect 53 0 54 0;
#X connect 54 0 55 0;
#X connect 55 0 8 0;
#X connect 55 1 42 0;
#X connect 55 2 11 0;
#X coords 0 -1 1 1 150 100 1 10 10;
