#N canvas 513 102 660 645 10;
#N canvas 0 95 1440 805 raw-inputs-timer 0;
#X obj 10 304 cnv 15 200 50 empty empty router 5 12 0 14 -233017 -66577
0;
#X obj 52 24 inlet from-serial;
#X obj 52 249 outlet US1;
#X obj 127 249 outlet US2;
#X obj 21 408 timer;
#X floatatom 21 343 5 0 0 1 (ms) - -, f 5;
#X obj 52 48 moses 128;
#X floatatom 52 80 5 0 0 2 data - -, f 5;
#X floatatom 103 80 5 0 0 2 addr - -, f 5;
#X msg 52 141 \$2 \$1;
#X obj 52 119 pack 0 1;
#X obj 103 98 - 128;
#X floatatom 52 224 4 0 0 0 - - -, f 4;
#X floatatom 127 224 4 0 0 0 - - -, f 4;
#X floatatom 196 224 4 0 0 0 - - -, f 4;
#X floatatom 115 343 5 0 0 1 (ms) - -, f 5;
#N canvas 296 398 800 422 find-maximum 0;
#X obj 241 23 inlet A;
#X obj 302 23 inlet B;
#X obj 361 23 inlet C;
#X obj 421 23 inlet D;
#X obj 481 23 inlet E;
#X obj 541 23 inlet F;
#X obj 602 23 inlet G;
#X obj 253 114 f;
#X obj 314 114 f;
#X obj 373 114 f;
#X obj 433 114 f;
#X obj 493 114 f;
#X floatatom 273 176 5 0 0 0 - - -, f 5;
#X obj 241 80 t b f;
#X obj 302 80 t b f;
#X obj 361 80 t b f;
#X obj 421 80 t b f;
#X obj 481 80 t b f;
#X obj 253 146 max 0;
#X obj 314 146 max 0;
#X obj 373 146 max 0;
#X obj 433 146 max 0;
#X obj 253 196 outlet maximum;
#X obj 541 80 t b f;
#X obj 602 80 t b f;
#X obj 661 80 t b f;
#X obj 721 80 t b f;
#X obj 781 80 t b f;
#X obj 10 97 t b b b b b b b b b b b b;
#X obj 553 114 f;
#X obj 614 114 f;
#X obj 673 114 f;
#X obj 733 114 f;
#X obj 793 114 f;
#X obj 553 146 max 0;
#X obj 614 146 max 0;
#X obj 673 146 max 0;
#X obj 733 146 max 0;
#X obj 493 146 max 0;
#X obj 661 23 inlet H;
#X obj 721 23 inlet I;
#X obj 781 23 inlet L, f 65;
#X connect 0 0 13 0;
#X connect 1 0 14 0;
#X connect 2 0 15 0;
#X connect 3 0 16 0;
#X connect 4 0 17 0;
#X connect 5 0 23 0;
#X connect 6 0 24 0;
#X connect 7 0 18 0;
#X connect 8 0 19 0;
#X connect 9 0 20 0;
#X connect 10 0 21 0;
#X connect 11 0 38 0;
#X connect 13 0 28 0;
#X connect 13 1 7 1;
#X connect 14 0 28 0;
#X connect 14 1 8 1;
#X connect 15 0 28 0;
#X connect 15 1 9 1;
#X connect 16 0 28 0;
#X connect 16 1 10 1;
#X connect 17 0 28 0;
#X connect 17 1 11 1;
#X connect 18 0 12 0;
#X connect 18 0 22 0;
#X connect 19 0 18 1;
#X connect 20 0 19 1;
#X connect 21 0 20 1;
#X connect 23 0 28 0;
#X connect 23 1 29 1;
#X connect 24 0 28 0;
#X connect 24 1 30 1;
#X connect 25 0 28 0;
#X connect 25 1 31 1;
#X connect 26 0 28 0;
#X connect 26 1 32 1;
#X connect 27 0 28 0;
#X connect 27 1 33 1;
#X connect 28 2 7 0;
#X connect 28 3 8 0;
#X connect 28 4 9 0;
#X connect 28 5 10 0;
#X connect 28 6 11 0;
#X connect 28 7 29 0;
#X connect 28 8 30 0;
#X connect 28 9 31 0;
#X connect 28 10 32 0;
#X connect 28 11 33 0;
#X connect 29 0 34 0;
#X connect 30 0 35 0;
#X connect 31 0 36 0;
#X connect 32 0 37 0;
#X connect 33 0 37 1;
#X connect 34 0 38 1;
#X connect 35 0 34 1;
#X connect 36 0 35 1;
#X connect 37 0 36 1;
#X connect 38 0 21 1;
#X connect 39 0 25 0;
#X connect 40 0 26 0;
#X connect 41 0 27 0;
#X restore 125 567 pd find-maximum;
#X floatatom 125 586 5 0 0 0 - - -, f 5;
#X obj 125 602 s intertime;
#X obj 115 325 bng 15 250 50 0 empty empty empty 17 7 0 10 -262144
-1 -1;
#X obj 21 325 bng 15 250 50 0 empty empty empty 17 7 0 10 -262144 -1
-1;
#X obj 52 187 route 0 1 2 3 4 5 6 7 8 9;
#X text 60 161 US;
#X obj 21 385 t b b;
#X obj 115 408 timer;
#X obj 115 385 t b b;
#X text 209 316 v04;
#X text 215 302 time between two readings from the same sensor;
#X connect 1 0 6 0;
#X connect 4 0 5 0;
#X connect 5 0 16 0;
#X connect 6 0 7 0;
#X connect 6 1 8 0;
#X connect 7 0 10 0;
#X connect 8 0 11 0;
#X connect 9 0 21 0;
#X connect 10 0 9 0;
#X connect 11 0 10 1;
#X connect 12 0 2 0;
#X connect 12 0 20 0;
#X connect 13 0 3 0;
#X connect 13 0 19 0;
#X connect 15 0 16 1;
#X connect 16 0 17 0;
#X connect 17 0 18 0;
#X connect 19 0 25 0;
#X connect 20 0 23 0;
#X connect 21 0 12 0;
#X connect 21 1 13 0;
#X connect 21 2 14 0;
#X connect 23 0 4 0;
#X connect 23 1 4 1;
#X connect 24 0 15 0;
#X connect 25 0 24 0;
#X connect 25 1 24 1;
#X coords 0 -1 1 1 200 60 2 10 300;
#X restore 4 182 pd raw-inputs-timer;
#X obj 4 101 master_serial;
#X obj 4 318 US_channel;
#X obj 14 261 bng 15 250 50 0 empty empty empty 17 7 0 10 -257985 -1
-1;
#X msg 14 291 0;
#X obj 97 318 US_channel;
#X obj 4 77 r to-serial;
#X obj 250 588 s to-serial;
#X obj 250 285 vsl 15 100 0 255 0 0 empty empty empty 0 -9 0 10 -262144
-1 -1 8700 1;
#X floatatom 250 433 5 0 0 0 - - -, f 5;
#X obj 250 452 / 2;
#X obj 250 473 i;
#X floatatom 250 495 5 0 0 0 - - -, f 5;
#X obj 241 127 bng 15 250 50 0 empty empty empty 17 7 0 10 -258113
-1 -1;
#X msg 250 563 128 \, \$1;
#X obj 241 243 s to-serial;
#X obj 431 127 bng 15 250 50 0 empty empty clear 17 7 0 10 -262144
-1 -1;
#X obj 431 243 s to-serial;
#X msg 241 147 140 \, 1;
#X msg 431 147 240 \, 1;
#X obj 250 518 change;
#X floatatom 312 130 5 0 0 0 - - -, f 5;
#X msg 312 214 150 \, \$1;
#X obj 315 88 hsl 100 15 0 1 0 0 empty empty time -2 8 0 10 -262144
-1 -1 1300 1;
#X obj 312 193 i;
#X obj 312 108 * 4064;
#X obj 312 149 / 4064;
#X obj 312 171 * 127;
#X connect 0 0 2 0;
#X connect 0 1 5 0;
#X connect 1 0 0 0;
#X connect 3 0 4 0;
#X connect 4 0 2 1;
#X connect 4 0 5 1;
#X connect 6 0 1 0;
#X connect 8 0 9 0;
#X connect 9 0 10 0;
#X connect 10 0 11 0;
#X connect 11 0 12 0;
#X connect 12 0 20 0;
#X connect 13 0 18 0;
#X connect 14 0 7 0;
#X connect 16 0 19 0;
#X connect 18 0 15 0;
#X connect 19 0 17 0;
#X connect 20 0 14 0;
#X connect 21 0 26 0;
#X connect 22 0 15 0;
#X connect 23 0 25 0;
#X connect 24 0 22 0;
#X connect 25 0 21 0;
#X connect 26 0 27 0;
#X connect 27 0 24 0;
#X coords 0 645 1 644 150 100 0;
