#N canvas 110 111 1425 585 10;
#N canvas 0 95 1440 805 raw-inputs-timer 0;
#X obj 10 304 cnv 15 1280 50 empty empty router 5 12 0 14 -233017 -66577
0;
#X obj 52 24 inlet from-serial;
#X obj 52 249 outlet US1;
#X obj 127 249 outlet US2;
#X obj 196 249 outlet US3;
#X obj 268 249 outlet US4;
#X obj 338 249 outlet US5;
#X obj 408 249 outlet US6;
#X obj 478 249 outlet US7;
#X obj 788 228 outlet base0;
#X obj 868 228 outlet filt0;
#X obj 948 228 outlet touch0;
#X obj 1034 229 outlet base1;
#X obj 1114 229 outlet filt1;
#X obj 1194 229 outlet touch1;
#X obj 1284 229 outlet accel-X;
#X obj 1374 229 outlet accel-Y;
#X obj 21 408 timer;
#X floatatom 21 343 5 0 0 1 (ms) - -, f 5;
#X obj 52 48 moses 128;
#X floatatom 52 80 5 0 0 2 data - -, f 5;
#X floatatom 103 80 5 0 0 2 addr - -, f 5;
#X msg 52 141 \$2 \$1;
#X obj 52 119 pack 0 1;
#X obj 103 98 - 128;
#X floatatom 52 224 4 0 0 0 - - -, f 4;
#X floatatom 127 224 4 0 0 0 - - -, f 4;
#X floatatom 196 224 4 0 0 0 - - -, f 4;
#X floatatom 268 224 4 0 0 0 - - -, f 4;
#X floatatom 338 224 4 0 0 0 - - -, f 4;
#X floatatom 115 343 5 0 0 1 (ms) - -, f 5;
#X floatatom 211 343 5 0 0 1 (ms) - -, f 5;
#X floatatom 310 343 5 0 0 1 (ms) - -, f 5;
#X floatatom 400 343 5 0 0 1 (ms) - -, f 5;
#N canvas 296 398 800 422 find-maximum 0;
#X obj 241 23 inlet A;
#X obj 302 23 inlet B;
#X obj 361 23 inlet C;
#X obj 421 23 inlet D;
#X obj 481 23 inlet E;
#X obj 541 23 inlet F;
#X obj 602 23 inlet G;
#X obj 253 114 f;
#X obj 314 114 f;
#X obj 373 114 f;
#X obj 433 114 f;
#X obj 493 114 f;
#X floatatom 273 176 5 0 0 0 - - -, f 5;
#X obj 241 80 t b f;
#X obj 302 80 t b f;
#X obj 361 80 t b f;
#X obj 421 80 t b f;
#X obj 481 80 t b f;
#X obj 253 146 max 0;
#X obj 314 146 max 0;
#X obj 373 146 max 0;
#X obj 433 146 max 0;
#X obj 253 196 outlet maximum;
#X obj 541 80 t b f;
#X obj 602 80 t b f;
#X obj 661 80 t b f;
#X obj 721 80 t b f;
#X obj 781 80 t b f;
#X obj 10 97 t b b b b b b b b b b b b;
#X obj 553 114 f;
#X obj 614 114 f;
#X obj 673 114 f;
#X obj 733 114 f;
#X obj 793 114 f;
#X obj 553 146 max 0;
#X obj 614 146 max 0;
#X obj 673 146 max 0;
#X obj 733 146 max 0;
#X obj 493 146 max 0;
#X obj 661 23 inlet H;
#X obj 721 23 inlet I;
#X obj 781 23 inlet L, f 65;
#X connect 0 0 13 0;
#X connect 1 0 14 0;
#X connect 2 0 15 0;
#X connect 3 0 16 0;
#X connect 4 0 17 0;
#X connect 5 0 23 0;
#X connect 6 0 24 0;
#X connect 7 0 18 0;
#X connect 8 0 19 0;
#X connect 9 0 20 0;
#X connect 10 0 21 0;
#X connect 11 0 38 0;
#X connect 13 0 28 0;
#X connect 13 1 7 1;
#X connect 14 0 28 0;
#X connect 14 1 8 1;
#X connect 15 0 28 0;
#X connect 15 1 9 1;
#X connect 16 0 28 0;
#X connect 16 1 10 1;
#X connect 17 0 28 0;
#X connect 17 1 11 1;
#X connect 18 0 12 0;
#X connect 18 0 22 0;
#X connect 19 0 18 1;
#X connect 20 0 19 1;
#X connect 21 0 20 1;
#X connect 23 0 28 0;
#X connect 23 1 29 1;
#X connect 24 0 28 0;
#X connect 24 1 30 1;
#X connect 25 0 28 0;
#X connect 25 1 31 1;
#X connect 26 0 28 0;
#X connect 26 1 32 1;
#X connect 27 0 28 0;
#X connect 27 1 33 1;
#X connect 28 2 7 0;
#X connect 28 3 8 0;
#X connect 28 4 9 0;
#X connect 28 5 10 0;
#X connect 28 6 11 0;
#X connect 28 7 29 0;
#X connect 28 8 30 0;
#X connect 28 9 31 0;
#X connect 28 10 32 0;
#X connect 28 11 33 0;
#X connect 29 0 34 0;
#X connect 30 0 35 0;
#X connect 31 0 36 0;
#X connect 32 0 37 0;
#X connect 33 0 37 1;
#X connect 34 0 38 1;
#X connect 35 0 34 1;
#X connect 36 0 35 1;
#X connect 37 0 36 1;
#X connect 38 0 21 1;
#X connect 39 0 25 0;
#X connect 40 0 26 0;
#X connect 41 0 27 0;
#X restore 125 567 pd find-maximum;
#X floatatom 125 586 5 0 0 0 - - -, f 5;
#X obj 125 602 s intertime;
#X floatatom 408 224 4 0 0 0 - - -, f 4;
#X floatatom 490 343 5 0 0 1 (ms) - -, f 5;
#X floatatom 478 224 4 0 0 0 - - -, f 4;
#X floatatom 590 343 5 0 0 1 (ms) - -, f 5;
#X floatatom 1284 207 4 0 0 0 - - -, f 4;
#X floatatom 1374 207 4 0 0 0 - - -, f 4;
#X floatatom 1464 207 4 0 0 0 - - -, f 4;
#X obj 115 325 bng 15 250 50 0 empty empty empty 17 7 0 10 -262144
-1 -1;
#X obj 21 325 bng 15 250 50 0 empty empty empty 17 7 0 10 -262144 -1
-1;
#X obj 310 325 bng 15 250 50 0 empty empty empty 17 7 0 10 -262144
-1 -1;
#X obj 211 325 bng 15 250 50 0 empty empty empty 17 7 0 10 -262144
-1 -1;
#X obj 400 325 bng 15 250 50 0 empty empty empty 17 7 0 10 -262144
-1 -1;
#X obj 590 325 bng 15 250 50 0 empty empty empty 17 7 0 10 -262144
-1 -1;
#X obj 490 325 bng 15 250 50 0 empty empty empty 17 7 0 10 -262144
-1 -1;
#X floatatom 670 343 5 0 0 1 (ms) - -, f 5;
#X obj 670 325 bng 15 250 50 0 empty empty empty 17 7 0 10 -262144
-1 -1;
#X floatatom 740 343 5 0 0 1 (ms) - -, f 5;
#X obj 740 325 bng 15 250 50 0 empty empty empty 17 7 0 10 -262144
-1 -1;
#X text 1033 300 accelerometer;
#X floatatom 1036 339 5 0 0 1 (ms) - -, f 5;
#X obj 1036 321 bng 15 250 50 0 empty empty empty 17 7 0 10 -262144
-1 -1;
#X floatatom 1126 339 5 0 0 1 (ms) - -, f 5;
#X obj 1126 321 bng 15 250 50 0 empty empty empty 17 7 0 10 -262144
-1 -1;
#X floatatom 1216 339 5 0 0 1 (ms) - -, f 5;
#X obj 1216 321 bng 15 250 50 0 empty empty empty 17 7 0 10 -262144
-1 -1;
#X obj 52 187 route 0 1 2 3 4 5 6 7 8 9;
#X text 60 161 US;
#X obj 788 158 route 20 21 22 23 24 25;
#X text 788 136 TOUCH;
#X obj 1284 158 route 40 41 42;
#X text 1286 139 ACCEL;
#X text 1557 138 INTERRUPT;
#X obj 1558 158 route 60 61 62 63;
#X floatatom 546 224 4 0 0 0 - - -, f 4;
#X floatatom 616 224 4 0 0 0 - - -, f 4;
#X floatatom 686 224 4 0 0 0 - - -, f 4;
#X obj 546 248 outlet US8;
#X obj 616 248 outlet US9;
#X obj 686 248 outlet US10;
#X floatatom 878 343 5 0 0 1 (ms) - -, f 5;
#X obj 878 325 bng 15 250 50 0 empty empty empty 17 7 0 10 -262144
-1 -1;
#X floatatom 958 343 5 0 0 1 (ms) - -, f 5;
#X obj 958 325 bng 15 250 50 0 empty empty empty 17 7 0 10 -262144
-1 -1;
#X text 876 308 base & filt delays;
#X floatatom 805 343 5 0 0 1 (ms) - -, f 5;
#X obj 805 325 bng 15 250 50 0 empty empty empty 17 7 0 10 -262144
-1 -1;
#X obj 1464 229 outlet accel-Z;
#X obj 1663 229 outlet hall_Rear;
#X obj 1558 229 outlet hall_Left;
#X obj 1766 229 outlet hall_Right;
#X obj 1875 229 outlet pushBefore;
#X obj 21 385 t b b;
#X obj 115 408 timer;
#X obj 115 385 t b b;
#X obj 211 408 timer;
#X obj 211 385 t b b;
#X obj 310 408 timer;
#X obj 310 385 t b b;
#X obj 400 408 timer;
#X obj 400 385 t b b;
#X obj 490 408 timer;
#X obj 490 385 t b b;
#X obj 590 408 timer;
#X obj 590 385 t b b;
#X obj 670 408 timer;
#X obj 670 385 t b b;
#X obj 740 408 timer;
#X obj 740 385 t b b;
#X obj 805 408 timer;
#X obj 805 385 t b b;
#X obj 878 408 timer;
#X obj 878 385 t b b;
#X obj 958 408 timer;
#X obj 958 385 t b b;
#X obj 1036 408 timer;
#X obj 1036 385 t b b;
#X obj 1126 408 timer;
#X obj 1126 385 t b b;
#X obj 1216 408 timer;
#X obj 1216 385 t b b;
#X text 1240 298 v04;
#X text 82 305 time between two readings from the same sensor;
#X connect 1 0 19 0;
#X connect 17 0 18 0;
#X connect 18 0 34 0;
#X connect 19 0 20 0;
#X connect 19 1 21 0;
#X connect 20 0 23 0;
#X connect 21 0 24 0;
#X connect 22 0 62 0;
#X connect 22 0 64 0;
#X connect 22 0 66 0;
#X connect 22 0 69 0;
#X connect 23 0 22 0;
#X connect 24 0 23 1;
#X connect 25 0 2 0;
#X connect 25 0 45 0;
#X connect 26 0 3 0;
#X connect 26 0 44 0;
#X connect 27 0 4 0;
#X connect 27 0 47 0;
#X connect 28 0 5 0;
#X connect 28 0 46 0;
#X connect 29 0 6 0;
#X connect 29 0 48 0;
#X connect 30 0 34 1;
#X connect 31 0 34 2;
#X connect 32 0 34 3;
#X connect 33 0 34 4;
#X connect 34 0 35 0;
#X connect 35 0 36 0;
#X connect 37 0 7 0;
#X connect 37 0 50 0;
#X connect 38 0 34 5;
#X connect 39 0 8 0;
#X connect 39 0 49 0;
#X connect 40 0 34 6;
#X connect 41 0 15 0;
#X connect 41 0 57 0;
#X connect 42 0 16 0;
#X connect 42 0 59 0;
#X connect 43 0 83 0;
#X connect 43 0 61 0;
#X connect 44 0 90 0;
#X connect 45 0 88 0;
#X connect 46 0 94 0;
#X connect 47 0 92 0;
#X connect 48 0 96 0;
#X connect 49 0 100 0;
#X connect 50 0 98 0;
#X connect 51 0 34 7;
#X connect 52 0 102 0;
#X connect 53 0 34 8;
#X connect 54 0 104 0;
#X connect 57 0 112 0;
#X connect 59 0 114 0;
#X connect 61 0 116 0;
#X connect 62 0 25 0;
#X connect 62 1 26 0;
#X connect 62 2 27 0;
#X connect 62 3 28 0;
#X connect 62 4 29 0;
#X connect 62 5 37 0;
#X connect 62 6 39 0;
#X connect 62 7 70 0;
#X connect 62 8 71 0;
#X connect 62 9 72 0;
#X connect 64 0 9 0;
#X connect 64 1 10 0;
#X connect 64 2 11 0;
#X connect 64 2 77 0;
#X connect 64 3 12 0;
#X connect 64 4 13 0;
#X connect 64 5 14 0;
#X connect 64 5 79 0;
#X connect 66 0 41 0;
#X connect 66 1 42 0;
#X connect 66 2 43 0;
#X connect 69 0 85 0;
#X connect 69 1 84 0;
#X connect 69 2 86 0;
#X connect 69 3 87 0;
#X connect 70 0 73 0;
#X connect 70 0 52 0;
#X connect 71 0 74 0;
#X connect 71 0 54 0;
#X connect 72 0 75 0;
#X connect 72 0 82 0;
#X connect 77 0 108 0;
#X connect 79 0 110 0;
#X connect 81 0 34 9;
#X connect 82 0 106 0;
#X connect 88 0 17 0;
#X connect 88 1 17 1;
#X connect 89 0 30 0;
#X connect 90 0 89 0;
#X connect 90 1 89 1;
#X connect 91 0 31 0;
#X connect 92 0 91 0;
#X connect 92 1 91 1;
#X connect 93 0 32 0;
#X connect 94 0 93 0;
#X connect 94 1 93 1;
#X connect 95 0 33 0;
#X connect 96 0 95 0;
#X connect 96 1 95 1;
#X connect 97 0 38 0;
#X connect 98 0 97 0;
#X connect 98 1 97 1;
#X connect 99 0 40 0;
#X connect 100 0 99 0;
#X connect 100 1 99 1;
#X connect 101 0 51 0;
#X connect 102 0 101 0;
#X connect 102 1 101 1;
#X connect 103 0 53 0;
#X connect 104 0 103 0;
#X connect 104 1 103 1;
#X connect 105 0 81 0;
#X connect 106 0 105 0;
#X connect 106 1 105 1;
#X connect 107 0 76 0;
#X connect 108 0 107 0;
#X connect 108 1 107 1;
#X connect 109 0 78 0;
#X connect 110 0 109 0;
#X connect 110 1 109 1;
#X connect 111 0 56 0;
#X connect 112 0 111 0;
#X connect 112 1 111 1;
#X connect 113 0 58 0;
#X connect 114 0 113 0;
#X connect 114 1 113 1;
#X connect 115 0 60 0;
#X connect 116 0 115 0;
#X connect 116 1 115 1;
#X coords 0 -1 1 1 1280 60 2 10 300;
#X restore 4 122 pd raw-inputs-timer;
#X obj 4 41 master_serial;
#X obj 4 258 US_channel;
#X obj 14 201 bng 15 250 50 0 empty empty empty 17 7 0 10 -257985 -1
-1;
#X msg 14 231 0;
#X obj 97 258 US_channel;
#X obj 4 17 r to-serial;
#X obj 250 448 s to-serial;
#X obj 250 265 vsl 15 100 0 255 0 0 empty empty empty 0 -9 0 10 -262144
-1 -1 0 1;
#X msg 250 373 0 \, \$1;
#X obj 340 448 s to-serial;
#X obj 340 265 vsl 15 100 0 255 0 0 empty empty empty 0 -9 0 10 -262144
-1 -1 0 1;
#X obj 430 448 s to-serial;
#X obj 430 265 vsl 15 100 0 255 0 0 empty empty empty 0 -9 0 10 -262144
-1 -1 0 1;
#X msg 340 373 1 \, \$1;
#X msg 430 373 2 \, \$1;
#X connect 0 0 2 0;
#X connect 0 1 5 0;
#X connect 1 0 0 0;
#X connect 3 0 4 0;
#X connect 4 0 2 1;
#X connect 4 0 5 1;
#X connect 6 0 1 0;
#X connect 8 0 9 0;
#X connect 9 0 7 0;
#X connect 11 0 14 0;
#X connect 13 0 15 0;
#X connect 14 0 10 0;
#X connect 15 0 12 0;
#X coords 0 585 1 584 150 100 0;
