#N canvas 14 77 765 628 10;
#X obj 100 104 cnv 15 90 240 empty empty US-channel 5 12 0 14 -233017
-66577 0;
#X obj 338 100 inlet raw;
#X obj 130 199 vsl 10 100 0 100 0 0 empty empty empty 0 -9 0 10 -261234
-1 -1 4950 1;
#X obj 143 199 vsl 10 100 100 300 0 0 empty empty empty 0 -9 0 10 -204786
-1 -1 4950 1;
#X floatatom 132 328 4 0 0 0 - - -, f 4;
#X floatatom 132 310 4 0 0 0 - - -, f 4;
#X obj 166 199 vsl 15 100 0 1 0 0 empty empty norm 0 -9 0 10 -232576
-1 -1 9900 1;
#X obj 338 429 outlet normalized;
#X floatatom 163 310 4 0 0 3 norm - -, f 4;
#X obj 383 265 == 0;
#X obj 463 265 == 1;
#X obj 338 321 f;
#X obj 338 287 spigot 1;
#X obj 418 287 spigot 0;
#X obj 105 165 tgl 15 0 empty empty avrg 17 7 0 10 -262144 -1 -1 1
1;
#X obj 152 165 bng 15 250 50 0 empty empty rst 17 7 0 10 -262144 -1
-1;
#X obj 418 227 avarager5;
#X obj 6 100 loadbang;
#X msg 6 148 1;
#X obj 338 210 f;
#X msg 39 180 50;
#X msg 69 180 200;
#X obj 105 139 tgl 15 0 empty empty ON/OFF 17 7 0 10 -258699 -1 -1
0 1;
#X obj 416 99 inlet panic;
#X obj 673 154 sel 0;
#X obj 673 248 line;
#X obj 673 204 f;
#X msg 673 226 \$1 \, 1 1000;
#X obj 673 181 t b;
#X obj 338 345 normalizer;
#X obj 338 180 * 2;
#X obj 103 199 vsl 15 100 0 255 0 0 empty empty cm 0 -9 0 10 -262144
-1 -1 0 1;
#X floatatom 103 310 4 0 0 3 cm - -, f 4;
#X msg 6 122 0;
#X obj 535 248 f;
#X obj 37 137 colorizer;
#X msg 6 180 1;
#X obj 132 390 s \$0-min;
#X obj 132 370 s \$0-max;
#X obj 425 321 r \$0-max;
#X obj 366 321 r \$0-min;
#X obj 535 223 r \$0-avrg-ON-OFF;
#X obj 204 180 s \$0-avrg-ON-OFF;
#X obj 338 397 spigot;
#X obj 204 154 s \$0-spi-ON-OFF;
#X obj 371 369 r \$0-spi-ON-OFF;
#X obj 469 178 bng 15 250 50 0 empty empty avrg-reset 17 7 0 10 -262144
-1 -1;
#X text 164 122 v08;
#X connect 1 0 30 0;
#X connect 2 0 4 0;
#X connect 3 0 5 0;
#X connect 4 0 37 0;
#X connect 5 0 38 0;
#X connect 6 0 8 0;
#X connect 6 0 7 0;
#X connect 6 0 26 1;
#X connect 9 0 12 1;
#X connect 10 0 13 1;
#X connect 11 0 29 0;
#X connect 12 0 11 0;
#X connect 13 0 11 0;
#X connect 14 0 42 0;
#X connect 15 0 20 0;
#X connect 15 0 21 0;
#X connect 16 0 13 0;
#X connect 17 0 18 0;
#X connect 17 0 15 0;
#X connect 17 0 33 0;
#X connect 17 0 36 0;
#X connect 18 0 14 0;
#X connect 18 0 6 0;
#X connect 19 0 16 0;
#X connect 19 0 12 0;
#X connect 20 0 2 0;
#X connect 21 0 3 0;
#X connect 22 0 24 0;
#X connect 22 0 35 0;
#X connect 22 0 44 0;
#X connect 23 0 22 0;
#X connect 24 0 28 0;
#X connect 25 0 6 0;
#X connect 26 0 27 0;
#X connect 27 0 25 0;
#X connect 28 0 26 0;
#X connect 29 0 43 0;
#X connect 30 0 31 0;
#X connect 31 0 32 0;
#X connect 31 0 19 0;
#X connect 33 0 22 0;
#X connect 34 0 10 0;
#X connect 34 0 9 0;
#X connect 35 0 22 0;
#X connect 36 0 6 0;
#X connect 39 0 29 2;
#X connect 40 0 29 1;
#X connect 41 0 34 0;
#X connect 43 0 6 0;
#X connect 45 0 43 1;
#X connect 46 0 16 1;
#X coords 0 -1 1 1 90 250 2 100 100;
