#N canvas 535 207 783 576 10;
#X obj 100 105 cnv 15 70 165 empty empty light-ch 5 12 0 14 -233017
-66577 0;
#X obj 138 160 bng 15 250 50 0 empty gianni BANG! 0 -7 0 10 -258699
-1 -1;
#X obj 200 498 s to-serial;
#X floatatom 290 270 5 0 0 0 - - -, f 5;
#X obj 290 333 i;
#X obj 290 245 * 4064;
#X obj 290 289 / 4064;
#X obj 290 311 * 127;
#X obj 290 67 inlet time;
#X floatatom 290 89 5 0 0 0 - - -, f 5;
#X obj 111 142 vsl 15 100 0 1 0 0 empty empty time_(ms) 0 -9 0 10 -262144
-1 -1 0 1;
#X obj 414 77 f \$1;
#X obj 414 49 loadbang;
#X floatatom 414 99 5 0 0 0 - - -, f 5;
#X msg 200 463 \$1 \, 1;
#X floatatom 111 250 5 0 0 1 ms - -, f 5;
#X obj 200 175 f \$1;
#X obj 25 100 loadbang;
#X msg 25 146 2000;
#X obj 290 356 t b a;
#X obj 290 441 pack 1 2;
#X obj 290 378 f \$1;
#X msg 290 463 \$1 \, \$2;
#X obj 290 400 + 1;
#X floatatom 290 422 5 0 0 1 light_duration_addr - -, f 5;
#X text 21 26 use 140 or 150 as first argument to select which;
#X text 21 14 when you create a new [light-channel] obj;
#X text 21 39 Pixie LED to command.;
#X obj 414 118 sel 140 150;
#X msg 414 143 color 13 22 22;
#X msg 451 174 color 18 22 22;
#X obj 200 67 inlet bang;
#X text 135 233 v0.2;
#X connect 1 0 16 0;
#X connect 3 0 6 0;
#X connect 3 0 15 0;
#X connect 4 0 19 0;
#X connect 5 0 3 0;
#X connect 6 0 7 0;
#X connect 7 0 4 0;
#X connect 8 0 9 0;
#X connect 9 0 3 0;
#X connect 10 0 5 0;
#X connect 11 0 13 0;
#X connect 12 0 11 0;
#X connect 13 0 28 0;
#X connect 14 0 2 0;
#X connect 16 0 14 0;
#X connect 17 0 18 0;
#X connect 18 0 3 0;
#X connect 19 0 21 0;
#X connect 19 1 20 1;
#X connect 20 0 22 0;
#X connect 21 0 23 0;
#X connect 22 0 2 0;
#X connect 23 0 24 0;
#X connect 24 0 20 0;
#X connect 28 0 29 0;
#X connect 28 1 30 0;
#X connect 29 0 1 0;
#X connect 30 0 1 0;
#X connect 31 0 1 0;
#X coords 0 -1 1 1 70 170 2 100 100;
