#N canvas 267 238 1198 747 10;
#X obj 297 324 fancyA;
#X msg 21 100 create;
#X msg 37 122 destroy;
#X obj 61 151 tgl 15 0 empty empty empty 0 -6 0 8 -262144 -1 -1 0 1
;
#X obj 77 185 loadbang;
#X obj 18 237 gemwin 50;
#X obj 257 232 + 1;
#X obj 222 231 int;
#X obj 222 255 select 360;
#X msg 190 232 0;
#X obj 472 71 vsl 15 128 0 2 0 0 empty empty scale -4 -8 0 8 -262144
-1 -1 0 1;
#X obj 351 131 + 1;
#X obj 316 130 int;
#X msg 284 131 0;
#X obj 412 154 tgl 40 0 empty empty YZ_rot 2 -10 0 10 -262144 -1 -1
0 1;
#X obj 411 82 tgl 40 0 empty empty X_rot 4 -10 0 10 -262144 -1 -1 0
1;
#X obj 316 105 metro 20;
#X obj 316 154 select 180;
#X msg 175 60 reset;
#X msg 76 209 color 0 0 0 0;
#X obj 297 354 fancyA;
#X obj 297 384 fancyA;
#X obj 297 413 fancyA;
#X obj 297 444 fancyA;
#X obj 297 474 fancyA;
#X obj 297 504 fancyA;
#X obj 297 531 fancyA;
#X obj 297 561 fancyA;
#X obj 297 591 fancyA;
#X obj 297 620 fancyA;
#X obj 297 651 fancyA;
#X obj 297 681 fancyA;
#X obj 297 703 fancyA;
#X obj 367 324 fancyA;
#X obj 367 354 fancyA;
#X obj 367 384 fancyA;
#X obj 367 413 fancyA;
#X obj 367 444 fancyA;
#X obj 367 474 fancyA;
#X obj 367 504 fancyA;
#X obj 367 531 fancyA;
#X obj 367 561 fancyA;
#X obj 367 591 fancyA;
#X obj 367 620 fancyA;
#X obj 367 651 fancyA;
#X obj 367 681 fancyA;
#X obj 367 711 fancyA;
#X obj 222 206 metro 10;
#X obj 414 27 tgl 15 0 empty empty ON/OFF -5 -5 0 10 -262144 -1 -256513
0 1;
#X obj 169 20 sel 1;
#X obj 462 28 tgl 15 0 empty empty start -5 -5 0 10 -262144 -1 -1 0
1;
#X obj 18 260 loadbang;
#X msg 18 284 \; renderinit 0;
#X connect 0 0 20 0;
#X connect 0 1 20 1;
#X connect 0 2 20 2;
#X connect 1 0 5 0;
#X connect 2 0 5 0;
#X connect 3 0 5 0;
#X connect 4 0 19 0;
#X connect 6 0 7 1;
#X connect 7 0 6 0;
#X connect 7 0 8 0;
#X connect 7 0 0 0;
#X connect 8 0 9 0;
#X connect 9 0 7 0;
#X connect 10 0 0 2;
#X connect 11 0 12 1;
#X connect 12 0 11 0;
#X connect 12 0 17 0;
#X connect 13 0 12 0;
#X connect 14 0 47 0;
#X connect 15 0 16 0;
#X connect 16 0 12 0;
#X connect 17 0 13 0;
#X connect 17 0 0 1;
#X connect 18 0 5 0;
#X connect 19 0 5 0;
#X connect 20 0 21 0;
#X connect 20 1 21 1;
#X connect 20 2 21 2;
#X connect 21 0 22 0;
#X connect 21 1 22 1;
#X connect 21 2 22 2;
#X connect 22 0 23 0;
#X connect 22 1 23 1;
#X connect 22 2 23 2;
#X connect 23 0 24 0;
#X connect 23 1 24 1;
#X connect 23 2 24 2;
#X connect 24 0 25 0;
#X connect 24 1 25 1;
#X connect 24 2 25 2;
#X connect 25 0 26 0;
#X connect 25 1 26 1;
#X connect 25 2 26 2;
#X connect 26 0 27 0;
#X connect 26 1 27 1;
#X connect 26 2 27 2;
#X connect 27 0 28 0;
#X connect 27 1 28 1;
#X connect 27 2 28 2;
#X connect 28 0 29 0;
#X connect 28 1 29 1;
#X connect 28 2 29 2;
#X connect 29 0 30 0;
#X connect 29 1 30 1;
#X connect 29 2 30 2;
#X connect 30 0 31 0;
#X connect 30 1 31 1;
#X connect 30 2 31 2;
#X connect 31 0 32 0;
#X connect 31 1 32 1;
#X connect 31 2 32 2;
#X connect 32 0 33 0;
#X connect 32 1 33 1;
#X connect 32 2 33 2;
#X connect 33 0 34 0;
#X connect 33 1 34 1;
#X connect 33 2 34 2;
#X connect 34 0 35 0;
#X connect 34 1 35 1;
#X connect 34 2 35 2;
#X connect 35 0 36 0;
#X connect 35 1 36 1;
#X connect 35 2 36 2;
#X connect 36 0 37 0;
#X connect 36 1 37 1;
#X connect 36 2 37 2;
#X connect 37 0 38 0;
#X connect 37 1 38 1;
#X connect 37 2 38 2;
#X connect 38 0 39 0;
#X connect 38 1 39 1;
#X connect 38 2 39 2;
#X connect 39 0 40 0;
#X connect 39 1 40 1;
#X connect 39 2 40 2;
#X connect 40 0 41 0;
#X connect 40 1 41 1;
#X connect 40 2 41 2;
#X connect 41 0 42 0;
#X connect 41 1 42 1;
#X connect 41 2 42 2;
#X connect 42 0 43 0;
#X connect 42 1 43 1;
#X connect 42 2 43 2;
#X connect 43 0 44 0;
#X connect 43 1 44 1;
#X connect 43 2 44 2;
#X connect 44 0 45 0;
#X connect 44 1 45 1;
#X connect 44 2 45 2;
#X connect 45 0 46 0;
#X connect 45 1 46 1;
#X connect 45 2 46 2;
#X connect 47 0 7 0;
#X connect 48 0 49 0;
#X connect 49 0 1 0;
#X connect 49 1 2 0;
#X connect 50 0 3 0;
#X connect 51 0 52 0;
#X coords 0 -1 1 1 100 200 2 400 10;
