#N canvas 445 110 1154 755 10;
#X obj 721 9 cnv 15 160 120 empty empty empty 20 12 0 14 -150275 -66577
0;
#X msg 55 95 destroy;
#X obj 96 220 tgl 15 0 empty empty empty 0 -6 0 8 -262144 -1 -1 0 1
;
#X msg 78 192 reset;
#X obj 39 287 loadbang;
#X msg 39 311 \; renderinit 0;
#X obj 39 255 gemwin 50;
#X obj 195 189 gemhead;
#X obj 195 312 pix_image;
#X obj 780 29 tgl 15 0 empty renderinit start 0 -6 0 12 -262144 -1
-1 0 1;
#X msg 260 211 open \$1;
#X obj 260 190 openpanel;
#X obj 260 172 bng 15 250 50 0 empty empty empty 0 -6 0 8 -262144 -1
-1;
#X obj 352 190 gemhead;
#X obj 352 313 pix_image;
#X msg 417 212 open \$1;
#X obj 417 191 openpanel;
#X obj 417 173 bng 15 250 50 0 empty empty empty 0 -6 0 8 -262144 -1
-1;
#N canvas 165 364 561 386 blending 0;
#X obj 28 65 inlet;
#X obj 191 354 outlet;
#X obj 173 285 inlet;
#X obj 320 8 inlet;
#X obj 28 322 pix_composite;
#X obj 129 323 pix_add;
#X obj 285 322 pix_diff;
#X obj 191 322 pix_subtract;
#X obj 28 227 pix_alpha;
#N canvas 442 239 508 174 select 0;
#X obj 88 35 inlet;
#X msg 88 98 1;
#X msg 144 98 2;
#X msg 201 97 3;
#X msg 257 97 0;
#X obj 88 121 outlet;
#X msg 329 100 4;
#X obj 88 59 select pix_add pix_subtract pix_diff pix_composite pix_multiply
;
#X connect 0 0 7 0;
#X connect 1 0 5 0;
#X connect 2 0 5 0;
#X connect 3 0 5 0;
#X connect 4 0 5 0;
#X connect 6 0 5 0;
#X connect 7 0 1 0;
#X connect 7 1 2 0;
#X connect 7 2 3 0;
#X connect 7 3 4 0;
#X connect 7 4 6 0;
#X restore 350 82 pd select blending method;
#X obj 360 324 pix_multiply;
#N canvas 732 434 450 300 demux5 0;
#X obj 59 30 inlet;
#X obj 283 17 inlet;
#X obj 59 193 outlet;
#X obj 59 137 spigot;
#X obj 96 109 == 0;
#X obj 106 137 spigot;
#X obj 153 139 spigot;
#X obj 200 137 spigot;
#X obj 246 137 spigot;
#X obj 143 109 == 1;
#X obj 190 109 == 2;
#X obj 237 109 == 3;
#X obj 283 109 == 4;
#X obj 96 83 loadbang;
#X obj 59 52 t a a a a a;
#X obj 106 194 outlet;
#X obj 153 195 outlet;
#X obj 200 196 outlet;
#X obj 246 195 outlet;
#X obj 283 61 f;
#X connect 0 0 14 0;
#X connect 1 0 19 0;
#X connect 3 0 2 0;
#X connect 4 0 3 1;
#X connect 5 0 15 0;
#X connect 6 0 16 0;
#X connect 7 0 17 0;
#X connect 8 0 18 0;
#X connect 9 0 5 1;
#X connect 10 0 6 1;
#X connect 11 0 7 1;
#X connect 12 0 8 1;
#X connect 13 0 4 0;
#X connect 14 0 3 0;
#X connect 14 1 5 0;
#X connect 14 2 6 0;
#X connect 14 3 7 0;
#X connect 14 4 8 0;
#X connect 19 0 4 0;
#X connect 19 0 9 0;
#X connect 19 0 10 0;
#X connect 19 0 11 0;
#X connect 19 0 12 0;
#X restore 28 189 pd demux5;
#X obj 320 28 t b a;
#X obj 28 129 pix_buf;
#X text 26 39 pix1;
#X text 176 269 pix2;
#X obj 350 56 symbol;
#X text 99 232 we need an alpha componenct for 'composite';
#X text 85 115 [pix_add] and friends will overwrite the original (left)
image with the blend. [pix_buf] holds a local copy of the original
image and will refresh the output when banged.;
#X connect 0 0 13 0;
#X connect 2 0 5 1;
#X connect 2 0 4 1;
#X connect 2 0 7 1;
#X connect 2 0 6 1;
#X connect 2 0 10 1;
#X connect 3 0 12 0;
#X connect 4 0 1 0;
#X connect 5 0 1 0;
#X connect 6 0 1 0;
#X connect 7 0 1 0;
#X connect 8 0 4 0;
#X connect 9 0 11 1;
#X connect 10 0 1 0;
#X connect 11 0 8 0;
#X connect 11 1 5 0;
#X connect 11 2 7 0;
#X connect 11 3 6 0;
#X connect 11 4 10 0;
#X connect 12 0 13 0;
#X connect 12 1 16 0;
#X connect 13 0 11 0;
#X connect 16 0 9 0;
#X restore 195 384 pd blending;
#X msg 438 464 pix_multiply;
#X msg 439 439 pix_diff;
#X msg 437 415 pix_subtract;
#X msg 437 390 pix_add;
#X msg 438 367 pix_composite;
#X obj 195 502 pix_texture;
#X obj 195 530 rotateXYZ;
#X floatatom 220 427 5 0 0 0 - - -, f 5;
#X msg 269 467 quality \$1;
#X obj 269 448 tgl 15 0 empty empty empty 0 -6 0 8 -262144 -1 -1 0
1;
#X obj 195 553 translate;
#X text 64 386 Look inside---->;
#X obj 195 586 square 4;
#X obj 731 49 bng 15 250 50 0 empty empty load_file1 17 7 0 10 -262144
-1 -1;
#X obj 732 70 bng 15 250 50 0 empty empty load_file2 17 7 0 10 -262144
-1 -1;
#X obj 730 27 tgl 15 0 empty empty ON/OFF -5 -5 0 10 -262144 -1 -1
0 1;
#X obj 49 21 sel 1;
#X obj 857 28 vradio 15 1 0 5 empty empty FX 0 -8 0 10 -262144 -1 -1
1;
#X obj 537 241 sel 0;
#X obj 569 261 sel 1;
#X obj 601 282 sel 2;
#X obj 633 302 sel 3;
#X obj 665 322 sel 4;
#X obj 537 262 bng 15 250 50 0 empty empty empty 17 7 0 10 -262144
-1 -1;
#X obj 569 281 bng 15 250 50 0 empty empty empty 17 7 0 10 -262144
-1 -1;
#X obj 601 302 bng 15 250 50 0 empty empty empty 17 7 0 10 -262144
-1 -1;
#X obj 633 322 bng 15 250 50 0 empty empty empty 17 7 0 10 -262144
-1 -1;
#X obj 665 343 bng 15 250 50 0 empty empty empty 17 7 0 10 -262144
-1 -1;
#X msg 38 70 create;
#X obj 736 100 tgl 20 0 empty empty auto 24 7 0 12 -262144 -1 -1 0
1;
#X floatatom 803 107 4 100 1000 2 tempo - -, f 4;
#X obj 736 215 i;
#X obj 782 214 + 1;
#X msg 702 184 0;
#X floatatom 921 49 5 0 0 0 - - -, f 5;
#X obj 736 183 bng 15 250 50 0 empty empty empty 17 7 0 10 -262144
-1 -1;
#X obj 736 237 >= 4;
#X obj 787 287 sel 1;
#X obj 791 315 t b;
#X obj 736 163 metro 1000;
#X connect 1 0 6 0;
#X connect 2 0 6 0;
#X connect 3 0 6 0;
#X connect 4 0 5 0;
#X connect 7 0 8 0;
#X connect 8 0 18 0;
#X connect 9 0 2 0;
#X connect 10 0 8 0;
#X connect 11 0 10 0;
#X connect 12 0 11 0;
#X connect 13 0 14 0;
#X connect 14 0 18 1;
#X connect 15 0 14 0;
#X connect 16 0 15 0;
#X connect 17 0 16 0;
#X connect 18 0 24 0;
#X connect 19 0 18 2;
#X connect 20 0 18 2;
#X connect 21 0 18 2;
#X connect 22 0 18 2;
#X connect 23 0 18 2;
#X connect 24 0 25 0;
#X connect 25 0 29 0;
#X connect 26 0 25 3;
#X connect 26 0 25 1;
#X connect 26 0 25 2;
#X connect 27 0 24 0;
#X connect 28 0 27 0;
#X connect 29 0 31 0;
#X connect 32 0 11 0;
#X connect 33 0 16 0;
#X connect 34 0 35 0;
#X connect 35 0 47 0;
#X connect 35 1 1 0;
#X connect 36 0 37 0;
#X connect 37 0 42 0;
#X connect 37 1 38 0;
#X connect 38 0 43 0;
#X connect 38 1 39 0;
#X connect 39 0 44 0;
#X connect 39 1 40 0;
#X connect 40 0 45 0;
#X connect 40 1 41 0;
#X connect 41 0 46 0;
#X connect 42 0 23 0;
#X connect 43 0 22 0;
#X connect 44 0 21 0;
#X connect 45 0 20 0;
#X connect 46 0 19 0;
#X connect 47 0 6 0;
#X connect 48 0 58 0;
#X connect 49 0 58 1;
#X connect 50 0 51 0;
#X connect 50 0 53 0;
#X connect 50 0 55 0;
#X connect 51 0 50 1;
#X connect 52 0 50 1;
#X connect 53 0 36 0;
#X connect 54 0 50 0;
#X connect 55 0 56 0;
#X connect 56 0 57 0;
#X connect 57 0 52 0;
#X connect 58 0 54 0;
#X coords 0 -1 1 1 160 120 2 720 10;
