#N canvas 560 155 726 605 10;
#X obj 238 82 gemhead;
#X obj 238 563 primTri 12345, f 44;
#X obj 238 200 rotateXYZ;
#X obj 238 330 alpha;
#X obj 238 282 scale;
#X obj 335 39 inlet;
#X obj 455 39 inlet;
#X obj 445 152 outlet;
#X obj 590 151 outlet;
#X obj 445 124 pipe 80;
#X obj 590 117 pipe 40;
#X obj 393 40 inlet;
#X obj 513 150 outlet;
#X obj 513 122 pipe 60;
#X obj 393 276 loadbang;
#X msg 288 331 0 -1 1;
#X msg 288 349 2 3 -1;
#X msg 288 367 -2 1 0;
#X msg 441 384 0.3 0 0.1 0.5;
#X msg 441 401 0 0.9 0.1 0.2;
#X msg 441 418 0.2 0 0.9 0.5;
#X msg 72 385 draw line;
#X connect 0 0 2 0;
#X connect 2 0 4 0;
#X connect 3 0 1 0;
#X connect 4 0 3 0;
#X connect 5 0 2 2;
#X connect 5 0 2 3;
#X connect 5 0 9 0;
#X connect 6 0 4 1;
#X connect 6 0 10 0;
#X connect 9 0 7 0;
#X connect 10 0 8 0;
#X connect 11 0 2 1;
#X connect 11 0 13 0;
#X connect 13 0 12 0;
#X connect 14 0 15 0;
#X connect 14 0 16 0;
#X connect 14 0 17 0;
#X connect 14 0 18 0;
#X connect 14 0 19 0;
#X connect 14 0 20 0;
#X connect 14 0 21 0;
#X connect 15 0 1 1;
#X connect 16 0 1 2;
#X connect 17 0 1 3;
#X connect 18 0 1 4;
#X connect 19 0 1 5;
#X connect 20 0 1 6;
#X connect 21 0 1 0;
