#N canvas 143 118 545 300 10;
#N canvas 0 50 450 300 gemwin 0;
#X obj 132 136 gemwin;
#X obj 67 89 outlet;
#X obj 67 10 inlet;
#X obj 67 41 route create;
#X msg 67 70 set destroy;
#X msg 142 68 set create;
#X msg 198 112 destroy \, reset;
#X msg 132 94 create \, 1 \, color 0.5 0.5 0.5;
#X connect 2 0 3 0;
#X connect 3 0 4 0;
#X connect 3 0 7 0;
#X connect 3 1 5 0;
#X connect 3 1 6 0;
#X connect 4 0 1 0;
#X connect 5 0 1 0;
#X connect 6 0 0 0;
#X connect 7 0 0 0;
#X restore 32 42 pd gemwin;
#X msg 32 23 destroy;
#X obj 161 17 gemhead;
#X msg 169 43 GREY;
#X msg 207 43 RGB;
#X msg 239 43 RGBA;
#X obj 161 179 pix_texture;
#X msg 80 179 quality \$1;
#X obj 80 157 tgl 15 0 empty empty empty 17 7 0 10 -262144 -1 -1 1
1;
#X msg 291 10 1 0 1 0 0 1 0 1 1 0 1 0 0 1 0 1 0 1 0 1 1 0 1 0 0 1 0
1 1 0 1 0 1 0 1 0 0 1 0 1 1 0 1 0 0 1 0 1 0 1 0 1 1 0 1 0 0 1 0 1 1
0 1 0;
#X obj 161 158 pix_set 4 4;
#X obj 161 201 square 4;
#X msg 291 68 0 1 0 1 1 0 1 0 0 1 0 1 1 0 1 0 1 0 1 0 0 1 0 1 1 0 1
0 0 1 0 1 0 1 0 1 1 0 1 0 0 1 0 1 1 0 1 0 1 0 1 0 0 1 0 1 1 0 1 0 0
1 0 1;
#X msg 624 164 0 1 0 1 1 0 1 0 0 1 0 1 1 0 1 0 1 0 1 0 0 1 0 1 1 0
1 0 0 1 0 1 0 1 0 1 1 0 1 0 0 1 0 1 1 0 1 0 1 0 1 0 0 1 0 1 1 0 1 0
0 1 0 1;
#X msg 291 142 0.5 0 1 0 0.2 1 0 1 1 0 1 0 0 1 0.3 1 0 1 0 1 1 0.2
1 0 0 1 0 1 1 0 1 0 0.5 0 1 0 0 1 0 1 1 0 1 0 0 1 0.7 1 0 1 0 1 1 0
1 0 0 1 0 1 1 0 1 0;
#X connect 0 0 1 0;
#X connect 1 0 0 0;
#X connect 2 0 10 0;
#X connect 3 0 10 0;
#X connect 4 0 10 0;
#X connect 5 0 10 0;
#X connect 6 0 11 0;
#X connect 7 0 6 0;
#X connect 8 0 7 0;
#X connect 9 0 10 1;
#X connect 10 0 6 0;
#X connect 12 0 10 1;
#X connect 14 0 10 1;
