#N canvas 324 134 944 760 10;
#X obj 220 43 gemhead;
#X obj 610 20 tgl 30 0 empty renderinit render 35 5 0 8 -262144 -1
-1 0 1;
#X msg 380 38 open \$1;
#X obj 380 17 openpanel;
#X obj 679 26 bng 20 250 50 0 empty empty sel 0 -6 0 8 -262144 -1 -1
;
#X obj 220 109 pix_film;
#X msg 246 79 open ../../06.data/03.video/Skisprung.avi;
#X msg 294 40 auto \$1;
#X obj 717 28 tgl 20 0 empty empty auto 0 -5 0 8 -262144 -1 -1 1 1
;
#X floatatom 233 228 3 0 1 2 fb0 - -, f 3;
#X floatatom 260 228 3 0 1 2 fb1 - -, f 3;
#X floatatom 286 228 3 0 1 2 fb2 - -, f 3;
#X floatatom 323 228 3 0 1 2 ff0 - -, f 3;
#X obj 220 248 pix_tIIR 2 1;
#X floatatom 350 228 3 0 1 2 ff1 - -, f 3;
#N canvas 1 95 450 300 init 0;
#X msg 175 214 0.3;
#X msg 247 215 0.6;
#X msg 277 215 0.4;
#X obj 104 258 outlet;
#X obj 154 258 outlet;
#X obj 204 258 outlet;
#X obj 254 258 outlet;
#X obj 304 258 outlet;
#X obj 244 59 inlet;
#X obj 338 158 t b;
#X msg 328 201 1;
#X msg 363 201 0;
#X obj 238 127 t b;
#X obj 246 88 route 1;
#X msg 104 214 0.2;
#X msg 140 215 0.5;
#X connect 0 0 5 0;
#X connect 1 0 6 0;
#X connect 2 0 7 0;
#X connect 8 0 13 0;
#X connect 9 0 10 0;
#X connect 9 0 11 0;
#X connect 10 0 3 0;
#X connect 10 0 6 0;
#X connect 11 0 4 0;
#X connect 11 0 5 0;
#X connect 11 0 7 0;
#X connect 12 0 14 0;
#X connect 12 0 15 0;
#X connect 12 0 0 0;
#X connect 12 0 1 0;
#X connect 12 0 2 0;
#X connect 13 0 12 0;
#X connect 13 1 9 0;
#X connect 14 0 3 0;
#X connect 15 0 4 0;
#X restore 379 211 pd init;
#X obj 610 80 tgl 20 0 empty empty IIR_init 0 -6 0 8 -262144 -1 -1
0 1;
#X msg 246 192 set;
#X msg 286 193 set 0;
#X obj 660 80 tgl 20 0 empty renderinit IIR_on/off 25 7 0 10 -262144
-1 -1 0 1;
#X obj 282 109 t 0;
#X obj 220 339 pix_rtx;
#X msg 291 317 set;
#X msg 236 313 mode \$1;
#X obj 610 130 tgl 20 0 empty renderinit RT_tr 0 -7 0 8 -262144 -1
-1 0 1;
#X obj 220 362 pix_motionblur;
#X obj 610 180 tgl 20 0 empty renderinit Blur_on/off 0 -7 0 8 -262144
-1 -1 0 1;
#X floatatom 660 186 4 0 100 1 blur - -, f 4;
#X obj 327 355 / 100;
#X floatatom 296 462 3 0 100 2 threshold - -, f 3;
#X obj 220 503 pix_movement 0.5;
#X obj 295 478 / 100;
#X obj 610 230 tgl 20 0 empty renderinit mov 17 7 0 10 -262144 -1 -1
0 1;
#X obj 220 618 alpha;
#X obj 660 130 tgl 20 0 empty empty Mode 25 7 0 10 -262144 -1 -1 0
1;
#X obj 454 520 outlet;
#X connect 0 0 5 0;
#X connect 1 0 0 0;
#X connect 2 0 5 0;
#X connect 3 0 2 0;
#X connect 4 0 3 0;
#X connect 5 0 13 0;
#X connect 5 2 20 0;
#X connect 6 0 5 0;
#X connect 7 0 5 0;
#X connect 8 0 7 0;
#X connect 9 0 13 1;
#X connect 10 0 13 2;
#X connect 11 0 13 3;
#X connect 12 0 13 4;
#X connect 13 0 21 0;
#X connect 14 0 13 5;
#X connect 15 0 9 0;
#X connect 15 1 10 0;
#X connect 15 2 11 0;
#X connect 15 3 12 0;
#X connect 15 4 14 0;
#X connect 16 0 15 0;
#X connect 17 0 13 0;
#X connect 18 0 13 0;
#X connect 19 0 13 0;
#X connect 20 0 5 1;
#X connect 21 0 25 0;
#X connect 22 0 21 0;
#X connect 23 0 21 0;
#X connect 24 0 21 0;
#X connect 25 0 30 0;
#X connect 26 0 25 0;
#X connect 27 0 28 0;
#X connect 28 0 25 1;
#X connect 29 0 31 0;
#X connect 30 0 33 0;
#X connect 31 0 30 1;
#X connect 32 0 30 0;
#X connect 33 0 35 0;
#X connect 34 0 23 0;
#X coords 0 -1 1 1 150 250 2 600 10;
