#N canvas 195 316 1003 451 10;
#X obj 16 39 udpreceive 12000;
#X obj 16 303 print;
#X msg 16 16 port 12001;
#X obj 36 93 routeOSC /note0 /note1 /note2 /note3;
#X obj 16 61 unpackOSC;
#X obj 98 140 tgl 15 0 empty empty empty 17 7 0 10 -262144 -1 -1 0
1;
#X obj 160 140 tgl 15 0 empty empty empty 17 7 0 10 -262144 -1 -1 0
1;
#X obj 222 140 tgl 15 0 empty empty empty 17 7 0 10 -262144 -1 -1 0
1;
#X obj 16 281 spigot;
#X obj 55 250 tgl 15 0 empty empty verbose 17 7 0 10 -262144 -1 -1
0 1;
#X obj 36 140 tgl 15 0 empty empty empty 17 7 0 10 -262144 -1 -1 0
1;
#X obj 448 125 osc~ 440;
#X obj 448 229 *~;
#X obj 467 204 sig~;
#X obj 467 179 r vol1;
#X obj 448 301 catch~ out;
#X obj 449 250 throw~ out;
#X obj 448 373 dac~;
#X obj 36 167 s vol1;
#X obj 340 101 loadbang;
#X msg 340 123 0;
#X obj 98 167 s vol2;
#X obj 160 167 s vol3;
#X obj 222 167 s vol4;
#X obj 528 229 *~;
#X obj 547 204 sig~;
#X obj 529 250 throw~ out;
#X obj 608 229 *~;
#X obj 627 204 sig~;
#X obj 609 250 throw~ out;
#X obj 688 229 *~;
#X obj 707 204 sig~;
#X obj 689 250 throw~ out;
#X obj 528 125 osc~ 880;
#X obj 608 125 osc~ 1100;
#X obj 688 125 osc~ 1320;
#X obj 462 36 tgl 15 0 empty empty empty 17 7 0 10 -262144 -1 -1 1
1;
#X msg 462 56 \; pd dsp \$1;
#X obj 547 179 r vol2;
#X obj 627 179 r vol3;
#X obj 707 179 r vol4;
#X obj 448 147 *~ 0.25;
#X obj 528 147 *~ 0.25;
#X obj 608 147 *~ 0.25;
#X obj 688 147 *~ 0.25;
#X obj 448 323 *~ 0.5;
#X connect 0 0 4 0;
#X connect 2 0 0 0;
#X connect 3 0 10 0;
#X connect 3 1 5 0;
#X connect 3 2 6 0;
#X connect 3 3 7 0;
#X connect 4 0 3 0;
#X connect 4 0 8 0;
#X connect 5 0 21 0;
#X connect 6 0 22 0;
#X connect 7 0 23 0;
#X connect 8 0 1 0;
#X connect 9 0 8 1;
#X connect 10 0 18 0;
#X connect 11 0 41 0;
#X connect 12 0 16 0;
#X connect 13 0 12 1;
#X connect 14 0 13 0;
#X connect 15 0 45 0;
#X connect 19 0 20 0;
#X connect 20 0 7 0;
#X connect 20 0 6 0;
#X connect 20 0 5 0;
#X connect 20 0 10 0;
#X connect 24 0 26 0;
#X connect 25 0 24 1;
#X connect 27 0 29 0;
#X connect 28 0 27 1;
#X connect 30 0 32 0;
#X connect 31 0 30 1;
#X connect 33 0 42 0;
#X connect 34 0 43 0;
#X connect 35 0 44 0;
#X connect 36 0 37 0;
#X connect 38 0 25 0;
#X connect 39 0 28 0;
#X connect 40 0 31 0;
#X connect 41 0 12 0;
#X connect 42 0 24 0;
#X connect 43 0 27 0;
#X connect 44 0 30 0;
#X connect 45 0 17 0;
#X connect 45 0 17 1;
