#N canvas 624 295 450 300 10;
#X obj 16 39 udpreceive 12000;
#X obj 16 223 print;
#X msg 16 16 port 12001;
#X obj 36 93 routeOSC /note0 /note1 /note2 /note3;
#X obj 16 61 unpackOSC;
#X obj 98 140 tgl 15 0 empty empty empty 17 7 0 10 -262144 -1 -1 0
1;
#X obj 160 140 tgl 15 0 empty empty empty 17 7 0 10 -262144 -1 -1 0
1;
#X obj 222 140 tgl 15 0 empty empty empty 17 7 0 10 -262144 -1 -1 0
1;
#X obj 16 201 spigot;
#X obj 55 170 tgl 15 0 empty empty verbose 17 7 0 10 -262144 -1 -1
0 1;
#X obj 36 140 tgl 15 0 empty empty empty 17 7 0 10 -262144 -1 -1 0
1;
#X connect 0 0 4 0;
#X connect 2 0 0 0;
#X connect 3 0 10 0;
#X connect 3 1 5 0;
#X connect 3 2 6 0;
#X connect 3 3 7 0;
#X connect 4 0 3 0;
#X connect 4 0 8 0;
#X connect 8 0 1 0;
#X connect 9 0 8 1;
