#N canvas 297 109 1099 773 10;
#X obj 148 71 vsl 15 100 0 255 0 0 empty empty x_(IN) 0 -9 0 10 -204800
-1 -1 9900 1;
#X obj 538 61 vsl 15 100 0 255 0 0 empty empty y 0 -9 0 10 -204800
-1 -1 0 1;
#X obj 538 3 swap 255;
#X obj 538 25 -;
#X obj 538 168 i;
#X obj 148 178 i;
#X floatatom 538 190 5 0 0 1 byte_(0-255) - -, f 5;
#X floatatom 148 200 5 0 0 1 byte_(0-255) - -, f 5;
#X obj 78 71 vsl 15 100 0 255 0 0 empty empty A 0 -9 0 10 -261682 -1
-1 7100 1;
#X obj 78 178 i;
#X floatatom 78 200 5 0 0 0 - - -, f 5;
#X obj 194 328 *;
#X obj 194 350 >> 8;
#X obj 194 391 vsl 15 100 0 255 0 0 empty empty A*x 0 -9 0 10 -262144
-1 -1 7066 1;
#X obj 194 498 i;
#X floatatom 194 520 5 0 0 0 - - -, f 5;
#X obj 148 231 + 1;
#X obj 538 209 + 1;
#X floatatom 148 275 5 0 0 1 byte_(rollover) - -, f 5;
#X obj 148 253 % 256;
#X floatatom 538 253 5 0 0 1 byte_(rollover) - -, f 5;
#X obj 538 231 % 256;
#X obj 148 298 moses 1;
#X obj 148 328 bng 15 250 50 0 empty empty empty 17 7 0 10 -262144
-1 -1;
#X obj 148 350 f;
#X obj 78 311 t a a;
#X obj 468 71 vsl 15 100 0 255 0 0 empty empty B 0 -9 0 10 -261682
-1 -1 2100 1;
#X obj 468 178 i;
#X floatatom 468 200 5 0 0 0 - - -, f 5;
#X obj 584 328 *;
#X obj 584 350 >> 8;
#X obj 584 391 vsl 15 100 0 255 0 0 empty empty B*y 0 -9 0 10 -262144
-1 -1 0 1;
#X obj 584 498 i;
#X floatatom 584 520 5 0 0 0 - - -, f 5;
#X obj 538 298 moses 1;
#X obj 538 328 bng 15 250 50 0 empty empty empty 17 7 0 10 -262144
-1 -1;
#X obj 538 350 f;
#X obj 468 311 t a a;
#X obj 194 559 +;
#X obj 194 601 vsl 15 100 0 255 0 0 empty empty (OUT) 0 -9 0 10 -261234
-1 -1 7066 1;
#X floatatom 194 710 5 0 0 0 - - -, f 5;
#X obj 307 214 t a a;
#X connect 0 0 5 0;
#X connect 1 0 4 0;
#X connect 2 0 3 0;
#X connect 2 1 3 1;
#X connect 3 0 1 0;
#X connect 4 0 6 0;
#X connect 5 0 7 0;
#X connect 6 0 17 0;
#X connect 7 0 41 0;
#X connect 8 0 9 0;
#X connect 9 0 10 0;
#X connect 10 0 25 0;
#X connect 11 0 12 0;
#X connect 12 0 13 0;
#X connect 13 0 14 0;
#X connect 14 0 15 0;
#X connect 15 0 38 0;
#X connect 16 0 19 0;
#X connect 17 0 21 0;
#X connect 18 0 22 0;
#X connect 19 0 18 0;
#X connect 20 0 34 0;
#X connect 21 0 20 0;
#X connect 22 0 23 0;
#X connect 22 1 11 0;
#X connect 23 0 24 0;
#X connect 24 0 13 0;
#X connect 25 0 24 1;
#X connect 25 1 11 1;
#X connect 26 0 27 0;
#X connect 27 0 28 0;
#X connect 28 0 37 0;
#X connect 29 0 30 0;
#X connect 30 0 31 0;
#X connect 31 0 32 0;
#X connect 32 0 33 0;
#X connect 33 0 38 1;
#X connect 34 0 35 0;
#X connect 34 1 29 0;
#X connect 35 0 36 0;
#X connect 36 0 31 0;
#X connect 37 0 36 1;
#X connect 37 1 29 1;
#X connect 38 0 39 0;
#X connect 39 0 40 0;
#X connect 41 0 16 0;
#X connect 41 1 2 0;
