#N canvas 524 499 450 300 10;
#X obj 51 33 vsl 15 100 0 127 0 0 empty empty servo_motion 0 -9 0 10
-262144 -1 -1 4989 1;
#X floatatom 51 140 5 0 0 0 - - -, f 5;
#N canvas 1 110 1344 633 serial 0;
#X obj 10 10 cnv 15 150 70 empty empty serial 5 12 0 14 -233017 -66577
0;
#X msg 289 366 info;
#X msg 132 366 devices;
#X msg 244 366 close;
#X obj 132 403 comport;
#X obj 132 477 outlet value;
#X obj 188 283 f;
#X msg 188 366 open \$1;
#X text 461 207 data chunk of 8 bits;
#X text 461 217 extra stop bit off;
#X text 461 227 parity bit off;
#X text 461 237 baud rate 9600;
#X msg 398 386 ports;
#X text 404 207 settings;
#X obj 114 36 bng 15 250 50 0 empty empty dev? 17 7 0 10 -262144 -1
-1;
#X floatatom 114 63 5 0 100 2 port - -, f 5;
#X obj 17 37 tgl 15 0 empty empty connect 17 7 0 10 -258699 -1 -1 0
1;
#X obj 17 219 sel 1;
#X obj 182 10 inlet data-to-be-sent;
#X msg 269 273 bits 8 \, stopbit 0 \, parity 0 \, baud 9600 \, hupcl
0 \, verbose 0;
#X obj 169 256 t b b b;
#X obj 152 452 print from-Arduino;
#X obj 217 236 t b b;
#X obj 17 58 tgl 15 0 empty empty polling 17 7 0 10 -262144 -1 -1 0
1;
#X obj 349 10 key;
#X floatatom 349 32 5 0 0 0 - - -, f 5;
#X obj 649 420 route open;
#X obj 649 11 tgl 15 0 empty empty empty 17 7 0 10 -262144 -1 -1 0
1;
#X obj 670 26 sel 0;
#X msg 697 77 color 16 22 22;
#X msg 670 57 color 13 22 22 \, set 0;
#X text 461 247 hang up off last close off;
#X obj 17 269 sel 1;
#X text 133 11 v05;
#X msg 17 294 255 \, 1;
#X text 74 295 (open);
#X text 67 322 (close);
#X msg 17 321 255 \, 0;
#X connect 1 0 4 0;
#X connect 2 0 4 0;
#X connect 3 0 4 0;
#X connect 4 0 5 0;
#X connect 4 1 26 0;
#X connect 6 0 7 0;
#X connect 7 0 4 0;
#X connect 12 0 4 0;
#X connect 14 0 2 0;
#X connect 15 0 6 1;
#X connect 16 0 17 0;
#X connect 17 0 20 0;
#X connect 17 1 22 0;
#X connect 18 0 4 0;
#X connect 19 0 4 0;
#X connect 20 0 1 0;
#X connect 20 1 6 0;
#X connect 20 2 19 0;
#X connect 22 0 1 0;
#X connect 22 1 3 0;
#X connect 23 0 32 0;
#X connect 24 0 25 0;
#X connect 26 0 27 0;
#X connect 27 0 28 0;
#X connect 28 0 30 0;
#X connect 28 1 29 0;
#X connect 29 0 16 0;
#X connect 30 0 16 0;
#X connect 32 0 34 0;
#X connect 32 1 37 0;
#X connect 34 0 4 0;
#X connect 37 0 4 0;
#X coords 0 -1 1 1 150 70 1 10 10;
#X restore 51 181 pd serial;
#X obj 51 159 i;
#X msg 202 97 64;
#X connect 0 0 1 0;
#X connect 1 0 3 0;
#X connect 3 0 2 0;
#X connect 4 0 0 0;
