#N canvas 138 214 814 481 10;
#X obj 115 66 vsl 15 100 0 180 0 0 empty r-fader angle 0 -9 0 10 -262144
-1 -1 0 1;
#X floatatom 115 173 5 0 0 0 - - -, f 5;
#N canvas 1 155 868 524 serial 0;
#X obj 10 10 cnv 15 150 70 empty empty serial 5 12 0 14 -233017 -66577
0;
#X msg 289 366 info;
#X msg 132 366 devices;
#X msg 244 366 close;
#X obj 132 403 comport;
#X obj 132 477 outlet value;
#X obj 188 283 f;
#X msg 188 366 open \$1;
#X text 461 207 data chunk of 8 bits;
#X text 461 217 extra stop bit off;
#X text 461 227 parity bit off;
#X text 461 237 baud rate 9600;
#X msg 398 386 ports;
#X text 404 207 settings;
#X obj 114 36 bng 15 250 50 0 empty empty dev? 17 7 0 10 -262144 -1
-1;
#X floatatom 114 63 5 0 100 2 port - -, f 5;
#X obj 17 37 tgl 15 0 empty empty connect 17 7 0 10 -24198 -1 -1 1
1;
#X obj 17 219 sel 1;
#X obj 182 10 inlet data-to-be-sent;
#X msg 269 273 bits 8 \, stopbit 0 \, parity 0 \, baud 9600 \, hupcl
0 \, verbose 0;
#X obj 169 256 t b b b;
#X obj 152 452 print from-Arduino;
#X obj 217 236 t b b;
#X obj 17 58 tgl 15 0 empty empty polling 17 7 0 10 -262144 -1 -1 0
1;
#X obj 349 10 key;
#X floatatom 349 32 5 0 0 0 - - -, f 5;
#X obj 649 420 route open;
#X obj 649 11 tgl 15 0 empty empty empty 17 7 0 10 -262144 -1 -1 1
1;
#X obj 670 26 sel 0;
#X msg 697 77 color 16 22 22;
#X msg 670 57 color 13 22 22 \, set 0;
#X text 461 247 hang up off last close off;
#X obj 17 269 sel 1;
#X text 133 11 v05;
#X text 74 295 (open);
#X text 67 322 (close);
#X msg 17 294 255;
#X msg 17 321 254;
#X obj 182 32 change;
#X connect 1 0 4 0;
#X connect 2 0 4 0;
#X connect 3 0 4 0;
#X connect 4 0 5 0;
#X connect 4 1 26 0;
#X connect 6 0 7 0;
#X connect 7 0 4 0;
#X connect 12 0 4 0;
#X connect 14 0 2 0;
#X connect 15 0 6 1;
#X connect 16 0 17 0;
#X connect 17 0 20 0;
#X connect 17 1 22 0;
#X connect 18 0 38 0;
#X connect 19 0 4 0;
#X connect 20 0 1 0;
#X connect 20 1 6 0;
#X connect 20 2 19 0;
#X connect 22 0 1 0;
#X connect 22 1 3 0;
#X connect 23 0 32 0;
#X connect 24 0 25 0;
#X connect 26 0 27 0;
#X connect 27 0 28 0;
#X connect 28 0 30 0;
#X connect 28 1 29 0;
#X connect 29 0 16 0;
#X connect 30 0 16 0;
#X connect 32 0 36 0;
#X connect 32 1 37 0;
#X connect 36 0 4 0;
#X connect 37 0 4 0;
#X connect 38 0 4 0;
#X coords 0 -1 1 1 150 70 1 10 10;
#X restore 115 224 pd serial;
#X obj 115 192 i;
#X msg 23 104 90;
#X msg 23 144 180;
#X msg 23 64 0;
#X floatatom 115 319 5 0 0 1 letture_dal_servo - -, f 5;
#X msg 23 84 21;
#X msg 23 124 166;
#X obj 23 163 s r-fader;
#X obj 462 34 cnv 15 300 360 empty empty cosine 5 12 0 14 -203904 -66577
0;
#X obj 488 296 cos;
#X floatatom 576 169 5 0 0 1 f - -, f 5;
#X obj 488 64 tgl 15 0 empty empty empty 17 7 0 10 -262144 -1 -1 0
1;
#X obj 488 84 metro 1;
#X obj 488 106 f;
#X obj 528 106 + 1;
#X msg 520 57 0;
#X floatatom 488 128 5 0 0 1 ms - -, f 5;
#X obj 488 147 / 1000;
#X floatatom 488 169 5 0 0 1 secs - -, f 5;
#X obj 488 222 * 6.28318;
#X text 559 222 2PI;
#X obj 488 198 *;
#X floatatom 638 168 5 0 0 1 phase_(gr) - -, f 5;
#X obj 638 257 f;
#X obj 488 274 +;
#X floatatom 638 235 5 0 0 1 phase_(rad) - -, f 5;
#X obj 638 187 / 180;
#X obj 638 210 * 3.14159;
#X text 709 210 PI;
#X obj 488 425 spigot;
#X obj 527 406 tgl 15 0 empty empty empty 17 7 0 10 -262144 -1 -1 1
1;
#X obj 488 452 s r-fader;
#X obj 295 35 cnv 15 160 360 empty empty keyb_ctrl 5 12 0 14 -204786
-66577 0;
#X obj 343 89 key;
#X floatatom 343 111 5 0 0 0 - - -, f 5;
#X obj 343 130 sel 111;
#X obj 389 152 sel 108;
#X obj 343 195 f;
#X obj 389 195 f;
#X obj 304 165 f;
#X obj 343 217 + 1;
#X obj 389 217 - 1;
#X obj 343 239 max 0;
#X obj 343 261 min 180;
#X floatatom 343 283 5 0 0 0 - - -, f 5;
#X obj 343 362 s r-fader;
#X text 364 52 o = increase;
#X text 365 65 l = decrease;
#X msg 304 131 0;
#X obj 343 335 spigot;
#X obj 382 316 tgl 15 0 empty empty empty 17 7 0 10 -262144 -1 -1 0
1;
#X obj 488 318 + 1;
#X obj 488 340 / 2;
#X obj 488 362 * 180;
#X obj 576 52 hradio 15 1 0 8 empty empty empty 0 -8 0 10 -262144 -1
-1 2;
#X obj 576 71 / 4;
#X obj 576 92 + 0.25;
#X floatatom 576 114 5 0 0 0 - - -, f 5;
#X connect 0 0 1 0;
#X connect 1 0 3 0;
#X connect 2 0 7 0;
#X connect 3 0 2 0;
#X connect 4 0 10 0;
#X connect 5 0 10 0;
#X connect 6 0 10 0;
#X connect 8 0 10 0;
#X connect 9 0 10 0;
#X connect 12 0 54 0;
#X connect 13 0 24 1;
#X connect 14 0 15 0;
#X connect 15 0 16 0;
#X connect 16 0 17 0;
#X connect 16 0 19 0;
#X connect 17 0 16 1;
#X connect 18 0 16 1;
#X connect 19 0 20 0;
#X connect 20 0 21 0;
#X connect 21 0 24 0;
#X connect 22 0 27 0;
#X connect 24 0 22 0;
#X connect 25 0 29 0;
#X connect 26 0 27 1;
#X connect 27 0 12 0;
#X connect 28 0 26 0;
#X connect 29 0 30 0;
#X connect 30 0 28 0;
#X connect 32 0 34 0;
#X connect 33 0 32 1;
#X connect 36 0 37 0;
#X connect 37 0 38 0;
#X connect 38 0 40 0;
#X connect 38 1 39 0;
#X connect 39 0 41 0;
#X connect 40 0 43 0;
#X connect 41 0 44 0;
#X connect 42 0 40 1;
#X connect 42 0 41 1;
#X connect 43 0 45 0;
#X connect 44 0 45 0;
#X connect 45 0 46 0;
#X connect 46 0 47 0;
#X connect 47 0 42 0;
#X connect 47 0 52 0;
#X connect 51 0 42 0;
#X connect 52 0 48 0;
#X connect 53 0 52 1;
#X connect 54 0 55 0;
#X connect 55 0 56 0;
#X connect 56 0 32 0;
#X connect 57 0 58 0;
#X connect 58 0 59 0;
#X connect 59 0 60 0;
#X connect 60 0 13 0;
